<?xml version="1.0" standalone="no"?>
<!DOCTYPE svg PUBLIC "-//W3C//DTD SVG 20010904//EN"
 "http://www.w3.org/TR/2001/REC-SVG-20010904/DTD/svg10.dtd">
<svg version="1.0" xmlns="http://www.w3.org/2000/svg"
 width="81.000000pt" height="106.000000pt" viewBox="0 0 81.000000 106.000000"
 preserveAspectRatio="xMidYMid meet">

<g transform="translate(0.000000,106.000000) scale(0.100000,-0.100000)"
fill="#000000" stroke="none">
<path d="M287 1004 c-25 -14 -27 -19 -25 -72 3 -56 4 -58 30 -54 19 3 25 9 22
21 -5 13 -4 13 6 -1 13 -21 48 -23 73 -4 15 11 17 22 11 51 -13 69 -58 91
-117 59z"/>
<path d="M140 866 c0 -8 4 -17 9 -20 5 -4 7 3 4 14 -6 23 -13 26 -13 6z"/>
<path d="M400 872 c0 -5 26 -9 58 -9 45 -1 51 0 27 7 -41 11 -85 12 -85 2z"/>
<path d="M100 845 c7 -9 15 -13 17 -11 7 7 -7 26 -19 26 -6 0 -6 -6 2 -15z"/>
<path d="M282 821 c5 -36 -24 -49 -44 -20 -18 26 -45 10 -29 -18 12 -24 6 -33
-25 -33 -17 0 -29 11 -43 38 -11 20 -20 33 -21 29 0 -16 41 -88 54 -93 8 -3
32 4 55 15 l40 21 5 -33 c12 -68 23 -183 22 -207 -1 -14 -7 -34 -13 -44 -12
-21 -73 -51 -73 -35 0 6 -10 8 -22 5 -13 -3 -17 -3 -10 0 6 3 12 11 12 17 0 6
-11 0 -25 -13 -30 -28 -32 -59 -6 -91 l18 -23 7 22 c7 22 20 23 74 6 24 -7 13
-34 -14 -34 -21 0 -24 3 -15 13 8 11 6 13 -11 12 -35 -3 -32 -21 9 -52 46 -34
86 -80 89 -102 11 -74 18 -101 23 -101 20 0 39 30 45 70 4 24 12 50 18 57 15
19 -2 35 -40 37 -17 1 -34 5 -39 10 -5 5 0 6 12 2 17 -6 16 -3 -6 21 -14 15
-36 42 -48 60 l-22 32 38 7 c21 4 43 11 50 16 9 7 35 -10 90 -57 43 -37 85
-70 93 -73 17 -7 121 -81 158 -112 44 -37 41 -10 -4 38 -28 30 -52 46 -64 44
-16 -3 -18 2 -14 30 3 22 2 29 -4 19 -14 -20 -88 -1 -86 22 1 10 -12 27 -28
40 -16 12 -42 33 -58 47 -15 14 -34 24 -41 22 -8 -2 -5 3 6 11 11 9 31 14 45
11 22 -4 22 -3 -5 10 l-30 15 30 -6 c17 -3 43 -17 60 -32 30 -26 30 -26 8 -1
-12 14 -25 44 -29 67 -3 23 -14 49 -24 58 -19 17 -19 30 -5 153 7 59 -9 122
-31 122 -9 0 -13 -4 -9 -9 3 -5 0 -13 -6 -16 -12 -8 -2 -106 11 -115 8 -5 13
-34 11 -57 0 -7 -7 -10 -15 -7 -8 3 -11 15 -8 30 2 13 0 24 -5 24 -5 0 -10 8
-10 18 1 111 -4 142 -20 142 -15 0 -16 -2 -3 -10 13 -8 12 -10 -2 -10 -10 0
-18 -4 -18 -10 0 -5 4 -10 9 -10 4 0 11 -39 15 -87 7 -89 17 -116 42 -106 8 3
14 1 14 -4 0 -9 -57 -33 -78 -33 -7 0 -17 12 -22 26 -12 30 -2 55 12 30 5 -9
14 -14 19 -10 6 3 -4 19 -23 35 -32 28 -32 29 -14 44 16 12 17 17 6 30 -7 8
-8 15 -3 15 5 0 8 12 7 28 -1 15 -3 37 -3 50 -1 15 -7 22 -22 22 -18 0 -21 -5
-17 -29z m147 -63 c-1 -42 -1 -42 -10 -13 -5 17 -7 36 -4 43 9 24 15 11 14
-30z m-267 -340 c-7 -7 -12 -8 -12 -2 0 14 12 26 19 19 2 -3 -1 -11 -7 -17z
m191 -243 c-3 -9 -8 -14 -10 -11 -3 3 -2 9 2 15 9 16 15 13 8 -4z"/>
<path d="M460 813 c0 -25 1 -25 54 -19 49 7 58 4 114 -28 61 -36 105 -45 118
-25 10 17 -18 40 -36 29 -13 -8 -12 -10 3 -10 9 0 17 -5 17 -11 0 -18 -46 -2
-76 26 -15 14 -33 25 -40 25 -8 0 -14 4 -14 8 0 13 -61 31 -102 30 -34 0 -38
-3 -38 -25z"/>
<path d="M160 826 c0 -2 8 -10 18 -17 15 -13 16 -12 3 4 -13 16 -21 21 -21 13z"/>
<path d="M310 692 c0 -4 10 -13 23 -21 22 -14 22 -14 3 8 -20 22 -26 25 -26
13z"/>
<path d="M50 595 c-7 -9 -11 -17 -9 -20 3 -2 10 5 17 15 14 24 10 26 -8 5z"/>
<path d="M30 555 c0 -11 23 -50 34 -57 20 -13 63 -8 77 9 13 15 12 15 -10 3
-21 -11 -23 -10 -18 4 4 9 2 16 -3 16 -6 0 -10 -7 -10 -15 0 -24 -30 -17 -40
9 -8 23 -30 45 -30 31z"/>
<path d="M75 550 c-3 -5 -1 -10 4 -10 6 0 11 5 11 10 0 6 -2 10 -4 10 -3 0 -8
-4 -11 -10z"/>
<path d="M135 551 c-3 -5 -1 -12 5 -16 5 -3 10 1 10 9 0 18 -6 21 -15 7z"/>
<path d="M245 510 c-3 -6 1 -7 9 -4 18 7 21 14 7 14 -6 0 -13 -4 -16 -10z"/>
<path d="M562 330 c7 -11 17 -20 22 -20 5 0 1 9 -9 20 -10 11 -20 20 -22 20
-2 0 2 -9 9 -20z"/>
<path d="M743 173 c-4 -10 -13 -24 -20 -32 -12 -11 -11 -16 2 -30 8 -10 15
-25 15 -35 0 -20 19 -17 33 6 8 11 5 21 -10 37 -13 14 -19 30 -15 43 5 21 5
21 14 -2 6 -17 12 -20 20 -12 14 14 3 42 -17 42 -9 0 -19 -8 -22 -17z"/>
</g>
</svg>
